<?xml version="1.0" standalone="no"?><!DOCTYPE svg PUBLIC "-//W3C//DTD SVG 1.1//EN" "http://www.w3.org/Graphics/SVG/1.1/DTD/svg11.dtd"><svg t="1630922402824" class="icon" viewBox="0 0 1024 1024" version="1.1" xmlns="http://www.w3.org/2000/svg" p-id="26966" xmlns:xlink="http://www.w3.org/1999/xlink" width="32" height="32"><defs><style type="text/css"></style></defs><path d="M136.784 381.592A423.96 423.96 0 0 0 64 619.512c0 98.184 33.52 191.384 94.088 266.848a24 24 0 0 0 37.44-30.048C141.704 789.28 112 706.648 112 619.52c0-76.16 22.672-148.944 64.576-211.08a24 24 0 0 0-39.792-26.84zM879.12 381.592a423.96 423.96 0 0 1 72.784 237.92c0 98.184-33.512 191.384-94.088 266.848a24 24 0 0 1-37.44-30.048c53.816-67.032 83.528-149.664 83.528-236.8 0-76.16-22.672-148.944-64.576-211.08a24 24 0 0 1 39.792-26.84z" p-id="26967"></path><path d="M328.656 359.096c-93.768 60.52-151.632 164.4-151.632 278.112 0 182.696 148.104 330.792 330.8 330.792 182.68 0 330.784-148.096 330.784-330.792 0-114.264-58.416-218.56-152.928-278.944-1.712-1.096-3.44-2.176-5.168-3.232a24 24 0 1 0-25.096 40.912c1.488 0.912 2.96 1.84 4.424 2.776 80.84 51.64 130.768 140.776 130.768 238.488C790.608 793.392 664 920 507.816 920c-156.176 0-282.792-126.608-282.792-282.792 0-97.24 49.448-186.008 129.664-237.784a24 24 0 0 0-26.032-40.328z" p-id="26968"></path><path d="M347.736 404.192c38-23.56 54.944-75.36 54.944-153.704v-14.504a48 48 0 0 1 48-48h106.24a48 48 0 0 1 48 48v14.504c0 78.8 20.68 131.52 65.264 154.616a24 24 0 1 0 22.08-42.624c-25.152-13.032-39.344-49.2-39.344-112v-14.496c0-53.016-42.984-96-96-96h-106.24c-53.016 0-96 42.984-96 96v14.504c0 63.368-12.12 100.44-32.232 112.904a24 24 0 0 0 25.288 40.8z" p-id="26969"></path><path d="M368 64m24.224 0l226.048 0q24.224 0 24.224 24.224l0-0.008q0 24.224-24.224 24.224l-226.048 0q-24.224 0-24.224-24.224l0 0.008q0-24.224 24.224-24.224Z" p-id="26970"></path><path d="M394.792 249.688h234.128v48.44H394.792z" p-id="26971"></path></svg>